v 1 1 0
v 0 2 0
v 0 1 1
v 0 1 -1
v 0 0 0
v -1 1 0
vn 0.57735 0.57735 0.57735
vn 0.57735 0.57735 -0.57735
vn 0.57735 -0.57735 0.57735
vn 0.57735 -0.57735 -0.57735
vn -0.57735 0.57735 0.57735
vn -0.57735 0.57735 -0.57735
vn -0.57735 -0.57735 0.57735
vn -0.57735 -0.57735 -0.57735
vt 0.695913 0.875
vt 0.695913 0.625
vt 0.695913 0.375
vt 0.695913 0.125
vt 0.304087 0.875
vt 0.304087 0.625
vt 0.304087 0.375
vt 0.304087 0.125
f 1/6/1 2/6/1 3/6/1
f 2/5/5 6/5/5 3/5/5
f 5/7/3 1/7/3 3/7/3
f 6/8/7 5/8/7 3/8/7
f 2/2/2 1/2/2 4/2/2
f 6/1/6 2/1/6 4/1/6
f 1/3/4 5/3/4 4/3/4
f 5/4/8 6/4/8 4/4/8
